<svg width="820" height="312" viewBox="0 0 820 312" fill="none" xmlns="http://www.w3.org/2000/svg">
<rect width="820" height="312" fill="url(#paint0_linear_69_2)"/>
<path d="M536.481 262.711C530.261 259.934 524.634 256.307 519.414 252.198C514.046 247.978 508.789 243.462 503.976 238.613C497.645 232.171 492.277 224.916 487.686 217.105C482.54 208.406 478.505 199.3 475.691 189.676C474.359 184.937 473.581 180.051 472.507 175.239C470.693 166.91 470.99 158.396 471.064 149.956C471.101 144.774 471.989 139.702 472.841 134.594C473.951 127.82 475.802 121.194 478.098 114.753C480.726 107.46 483.91 100.427 488.168 93.9488C491.5 88.8774 494.794 83.695 498.719 79.1048C502.828 74.2185 507.456 69.7024 512.269 65.5195C516.97 61.4105 522.005 57.7088 527.188 54.2292C533.926 49.7131 541.182 46.1964 548.846 43.5312C553.955 41.7173 559.175 40.1626 564.469 38.793C567.69 37.9786 571.059 37.8305 574.317 37.1642C581.166 35.6835 588.089 35.9796 594.975 36.1277C600.01 36.2758 605.081 36.831 610.079 37.6084C615.225 38.4228 620.371 39.4963 625.369 40.94C633.514 43.2721 641.4 46.4185 648.656 50.7496C654.616 54.2662 660.355 58.2271 665.871 62.373C669.906 65.4084 673.756 68.851 677.162 72.5898C681.753 77.6241 686.159 82.9176 690.083 88.5072C693.452 93.2084 696.302 98.3538 698.894 103.536C702.966 111.606 705.854 120.194 707.927 129.004C709.001 133.742 709.63 138.592 710.149 143.441C710.63 148.068 710.889 152.732 710.889 157.359C711 175.942 710.926 194.525 711 213.071C711 214.921 710.408 215.329 708.705 215.255C705.003 215.144 701.3 215.292 697.598 215.218C696.117 215.144 695.71 215.588 695.747 217.068C695.784 235.947 695.747 254.826 695.821 273.668C695.821 275.593 695.266 276 693.452 276C659.022 275.926 624.592 275.963 590.162 275.926C583.72 275.926 577.315 275.186 570.948 274.149C564.025 273.002 557.213 271.41 550.697 268.893C545.921 267.005 541.293 264.821 536.481 262.711Z" fill="url(#paint1_linear_69_2)"/>
<circle cx="679.2" cy="157.8" r="10.5" fill="white"/>
<circle cx="591" cy="156" r="7.75" stroke="white" stroke-width="2.5"/>
<circle cx="546.6" cy="233.4" r="7.75" stroke="white" stroke-width="2.5"/>
<circle cx="636.3" cy="233.4" r="7.75" stroke="white" stroke-width="2.5"/>
<circle cx="546.6" cy="77.7" r="7.75" stroke="white" stroke-width="2.5"/>
<circle cx="501.6" cy="156" r="7.75" stroke="white" stroke-width="2.5"/>
<circle cx="636.3" cy="77.7" r="7.75" stroke="white" stroke-width="2.5"/>
<line x1="594.617" y1="148.808" x2="631.402" y2="85.094" stroke="white" stroke-width="2.5"/>
<line x1="509.507" y1="155.326" x2="583.077" y2="155.326" stroke="white" stroke-width="2.5"/>
<line x1="549.017" y1="226.508" x2="585.802" y2="162.794" stroke="white" stroke-width="2.5"/>
<line x1="596.583" y1="162.575" x2="633.368" y2="226.289" stroke="white" stroke-width="2.5"/>
<line x1="550.383" y1="85.175" x2="587.168" y2="148.889" stroke="white" stroke-width="2.5"/>
<path d="M147.28 83.68C167.6 83.68 182.6 87.08 192.28 93.88C202.04 100.68 206.92 110.12 206.92 122.2V124.24H188.44V122.68C188.44 114.68 185.04 108.76 178.24 104.92C171.44 101 161 99.04 146.92 99.04C133.64 99.04 123.88 100.68 117.64 103.96C111.4 107.16 108.04 112.24 107.56 119.2H119.32V134.92H107.56V208H88.72V134.92H76.96V119.2H88.72C89.84 95.52 109.36 83.68 147.28 83.68ZM218.12 134.92H206.36V208H187.4V164.2H172.28C174.36 167.96 175.4 172.08 175.4 176.56C175.4 181.44 174.24 185.64 171.92 189.16C169.68 192.68 166.64 195.32 162.8 197.08C159.04 198.84 154.84 199.72 150.2 199.72C145.4 199.72 140.92 198.72 136.76 196.72C132.68 194.64 129.4 191.68 126.92 187.84C124.44 183.92 123.2 179.36 123.2 174.16C123.2 168.64 124.48 163.96 127.04 160.12C129.6 156.2 133.04 153.28 137.36 151.36C141.68 149.44 146.48 148.48 151.76 148.48H187.4V134.92H115.28V119.2H218.12V134.92ZM150.44 183.76C153.4 183.76 155.8 182.88 157.64 181.12C159.48 179.28 160.4 176.92 160.4 174.04C160.4 171.16 159.48 168.8 157.64 166.96C155.8 165.12 153.4 164.2 150.44 164.2C147.48 164.2 145.04 165.12 143.12 166.96C141.2 168.8 140.24 171.16 140.24 174.04C140.24 176.92 141.16 179.28 143 181.12C144.92 182.88 147.4 183.76 150.44 183.76ZM256.429 160.6C251.949 160.6 248.389 161.76 245.749 164.08C243.109 166.32 241.789 169.44 241.789 173.44C241.789 177.04 242.829 179.92 244.909 182.08C246.989 184.24 249.829 185.32 253.429 185.32C256.549 185.32 259.149 184.36 261.229 182.44C263.309 180.44 264.349 177.72 264.349 174.28H281.869V211.96H263.389V194.32C261.709 196.16 259.549 197.6 256.909 198.64C254.269 199.68 251.309 200.2 248.029 200.2C243.389 200.2 239.109 199.2 235.189 197.2C231.349 195.12 228.269 192.04 225.949 187.96C223.629 183.88 222.469 178.88 222.469 172.96C222.469 166.96 223.829 161.84 226.549 157.6C229.269 153.28 233.029 150.04 237.829 147.88C242.709 145.64 248.229 144.52 254.389 144.52H258.949V134.92H214.069V119.2H291.589L291.469 134.92H277.789V160.6H256.429ZM299.306 208V134.92H287.546V119.2H329.906V134.92H318.146V208H299.306ZM428.706 134.92H416.946V208H397.986V164.2H382.866C384.946 167.96 385.986 172.08 385.986 176.56C385.986 181.44 384.826 185.64 382.506 189.16C380.266 192.68 377.226 195.32 373.386 197.08C369.626 198.84 365.426 199.72 360.786 199.72C355.986 199.72 351.506 198.72 347.346 196.72C343.266 194.64 339.986 191.68 337.506 187.84C335.026 183.92 333.786 179.36 333.786 174.16C333.786 168.64 335.066 163.96 337.626 160.12C340.186 156.2 343.626 153.28 347.946 151.36C352.266 149.44 357.066 148.48 362.346 148.48H397.986V134.92H325.866V119.2H428.706V134.92ZM361.026 183.76C363.986 183.76 366.386 182.88 368.226 181.12C370.066 179.28 370.986 176.92 370.986 174.04C370.986 171.16 370.066 168.8 368.226 166.96C366.386 165.12 363.986 164.2 361.026 164.2C358.066 164.2 355.626 165.12 353.706 166.96C351.786 168.8 350.826 171.16 350.826 174.04C350.826 176.92 351.746 179.28 353.586 181.12C355.506 182.88 357.986 183.76 361.026 183.76Z" fill="white"/>
<path d="M332.84 107H328.28L314.56 86.24V107H310V79.16H314.56L328.28 99.88V79.16H332.84V107ZM341.148 82.04C340.321 82.04 339.628 81.76 339.068 81.2C338.508 80.64 338.228 79.9467 338.228 79.12C338.228 78.2933 338.508 77.6 339.068 77.04C339.628 76.48 340.321 76.2 341.148 76.2C341.948 76.2 342.628 76.48 343.188 77.04C343.748 77.6 344.028 78.2933 344.028 79.12C344.028 79.9467 343.748 80.64 343.188 81.2C342.628 81.76 341.948 82.04 341.148 82.04ZM343.388 84.96V107H338.828V84.96H343.388ZM347.855 95.88C347.855 93.6667 348.308 91.7067 349.215 90C350.148 88.2933 351.402 86.9733 352.975 86.04C354.575 85.08 356.348 84.6 358.295 84.6C359.735 84.6 361.148 84.92 362.535 85.56C363.948 86.1733 365.068 87 365.895 88.04V77.4H370.495V107H365.895V103.68C365.148 104.747 364.108 105.627 362.775 106.32C361.468 107.013 359.962 107.36 358.255 107.36C356.335 107.36 354.575 106.88 352.975 105.92C351.402 104.933 350.148 103.573 349.215 101.84C348.308 100.08 347.855 98.0933 347.855 95.88ZM365.895 95.96C365.895 94.44 365.575 93.12 364.935 92C364.322 90.88 363.508 90.0267 362.495 89.44C361.482 88.8533 360.388 88.56 359.215 88.56C358.042 88.56 356.948 88.8533 355.935 89.44C354.922 90 354.095 90.84 353.455 91.96C352.842 93.0533 352.535 94.36 352.535 95.88C352.535 97.4 352.842 98.7333 353.455 99.88C354.095 101.027 354.922 101.907 355.935 102.52C356.975 103.107 358.068 103.4 359.215 103.4C360.388 103.4 361.482 103.107 362.495 102.52C363.508 101.933 364.322 101.08 364.935 99.96C365.575 98.8133 365.895 97.48 365.895 95.96ZM374.964 95.88C374.964 93.6667 375.418 91.7067 376.324 90C377.258 88.2933 378.511 86.9733 380.084 86.04C381.684 85.08 383.444 84.6 385.364 84.6C387.098 84.6 388.604 84.9467 389.884 85.64C391.191 86.3067 392.231 87.1467 393.004 88.16V84.96H397.604V107H393.004V103.72C392.231 104.76 391.178 105.627 389.844 106.32C388.511 107.013 386.991 107.36 385.284 107.36C383.391 107.36 381.658 106.88 380.084 105.92C378.511 104.933 377.258 103.573 376.324 101.84C375.418 100.08 374.964 98.0933 374.964 95.88ZM393.004 95.96C393.004 94.44 392.684 93.12 392.044 92C391.431 90.88 390.618 90.0267 389.604 89.44C388.591 88.8533 387.498 88.56 386.324 88.56C385.151 88.56 384.058 88.8533 383.044 89.44C382.031 90 381.204 90.84 380.564 91.96C379.951 93.0533 379.644 94.36 379.644 95.88C379.644 97.4 379.951 98.7333 380.564 99.88C381.204 101.027 382.031 101.907 383.044 102.52C384.084 103.107 385.178 103.4 386.324 103.4C387.498 103.4 388.591 103.107 389.604 102.52C390.618 101.933 391.431 101.08 392.044 99.96C392.684 98.8133 393.004 97.48 393.004 95.96ZM414.714 84.6C416.447 84.6 417.994 84.96 419.354 85.68C420.74 86.4 421.82 87.4667 422.594 88.88C423.367 90.2933 423.754 92 423.754 94V107H419.234V94.68C419.234 92.7067 418.74 91.2 417.754 90.16C416.767 89.0933 415.42 88.56 413.714 88.56C412.007 88.56 410.647 89.0933 409.634 90.16C408.647 91.2 408.154 92.7067 408.154 94.68V107H403.594V84.96H408.154V87.48C408.9 86.5733 409.847 85.8667 410.994 85.36C412.167 84.8533 413.407 84.6 414.714 84.6Z" fill="white"/>
<defs>
<linearGradient id="paint0_linear_69_2" x1="410" y1="0" x2="410" y2="312" gradientUnits="userSpaceOnUse">
<stop stop-color="#15282D"/>
<stop offset="1" stop-color="#205859"/>
</linearGradient>
<linearGradient id="paint1_linear_69_2" x1="718.737" y1="10.5117" x2="365.594" y2="376.838" gradientUnits="userSpaceOnUse">
<stop offset="0.111934" stop-color="#16D6B4"/>
<stop offset="0.677452" stop-color="#32655C"/>
</linearGradient>
</defs>
</svg>
